<?xml version="1.0" standalone="no"?>
<svg
  width="600"
  height="600"
  viewBox="0 0 600 600"
  xmlns="http://www.w3.org/2000/svg"
>
  <g transform="translate(300,300)">
    <path d="M112,-128.5C147.3,-103.9,179.5,-70.6,180.4,-36.2C181.3,-1.7,150.8,33.9,129.2,77.5C107.5,121.2,94.6,172.9,61.8,196.4C29,219.9,-23.8,215.2,-68.5,195.7C-113.1,176.2,-149.7,141.8,-171,100.7C-192.4,59.6,-198.6,11.8,-182.8,-24.3C-167,-60.3,-129.1,-84.6,-95,-109.4C-60.9,-134.2,-30.4,-159.6,4,-164.3C38.4,-169,76.7,-153.1,112,-128.5Z" fill="#8ed1fc" />
  </g>
</svg>
  