<?xml version="1.0" standalone="no"?><svg xmlns="http://www.w3.org/2000/svg" viewBox="0 0 1440 320"><path fill="#0099ff" fill-opacity="0.07" d="M0,0L40,37.3C80,75,160,149,240,192C320,235,400,245,480,256C560,267,640,277,720,256C800,235,880,181,960,165.3C1040,149,1120,171,1200,197.3C1280,224,1360,256,1400,272L1440,288L1440,320L1400,320C1360,320,1280,320,1200,320C1120,320,1040,320,960,320C880,320,800,320,720,320C640,320,560,320,480,320C400,320,320,320,240,320C160,320,80,320,40,320L0,320Z"></path></svg>