<?xml version="1.0" standalone="no"?><svg xmlns="http://www.w3.org/2000/svg" viewBox="0 0 1440 320"><path fill="#0099ff" fill-opacity="0.07" d="M0,128L20,122.7C40,117,80,107,120,101.3C160,96,200,96,240,80C280,64,320,32,360,53.3C400,75,440,149,480,197.3C520,245,560,267,600,229.3C640,192,680,96,720,85.3C760,75,800,149,840,165.3C880,181,920,139,960,138.7C1000,139,1040,181,1080,181.3C1120,181,1160,139,1200,117.3C1240,96,1280,96,1320,101.3C1360,107,1400,117,1420,122.7L1440,128L1440,0L1420,0C1400,0,1360,0,1320,0C1280,0,1240,0,1200,0C1160,0,1120,0,1080,0C1040,0,1000,0,960,0C920,0,880,0,840,0C800,0,760,0,720,0C680,0,640,0,600,0C560,0,520,0,480,0C440,0,400,0,360,0C320,0,280,0,240,0C200,0,160,0,120,0C80,0,40,0,20,0L0,0Z"></path></svg>