<?xml version="1.0" standalone="no"?><svg xmlns="http://www.w3.org/2000/svg" viewBox="0 0 1440 320"><path fill="#0099ff" fill-opacity="0.07" d="M0,256L20,240C40,224,80,192,120,202.7C160,213,200,267,240,288C280,309,320,299,360,282.7C400,267,440,245,480,218.7C520,192,560,160,600,170.7C640,181,680,235,720,240C760,245,800,203,840,208C880,213,920,267,960,250.7C1000,235,1040,149,1080,138.7C1120,128,1160,192,1200,229.3C1240,267,1280,277,1320,256C1360,235,1400,181,1420,154.7L1440,128L1440,320L1420,320C1400,320,1360,320,1320,320C1280,320,1240,320,1200,320C1160,320,1120,320,1080,320C1040,320,1000,320,960,320C920,320,880,320,840,320C800,320,760,320,720,320C680,320,640,320,600,320C560,320,520,320,480,320C440,320,400,320,360,320C320,320,280,320,240,320C200,320,160,320,120,320C80,320,40,320,20,320L0,320Z"></path></svg>